<?xml version="1.0" standalone="no"?>
<!DOCTYPE svg PUBLIC "-//W3C//DTD SVG 20010904//EN"
 "http://www.w3.org/TR/2001/REC-SVG-20010904/DTD/svg10.dtd">
<svg version="1.0" xmlns="http://www.w3.org/2000/svg"
 width="171.000000pt" height="171.000000pt" viewBox="0 0 171.000000 171.000000"
 preserveAspectRatio="xMidYMid meet">
<metadata>
Created by potrace 1.14, written by Peter Selinger 2001-2017
</metadata>
<g transform="translate(0.000000,171.000000) scale(0.100000,-0.100000)"
fill="#000000" stroke="none">
<path d="M713 1403 l-128 -258 -220 -32 c-262 -37 -355 -53 -355 -60 0 -2 41
-43 91 -91 276 -263 327 -316 324 -342 -2 -14 -4 -25 -5 -25 -1 0 -3 -9 -5
-20 -6 -44 -16 -101 -21 -125 -2 -14 -6 -36 -9 -50 -2 -14 -7 -38 -9 -55 -3
-16 -15 -83 -27 -148 -11 -65 -19 -121 -16 -124 5 -4 246 115 257 128 13 15
256 134 269 131 7 -2 75 -36 150 -76 75 -40 185 -99 244 -130 60 -32 111 -56
114 -53 5 5 -3 55 -56 372 -17 99 -31 186 -31 192 0 11 143 155 338 340 74 70
85 88 55 89 -24 1 -124 14 -143 19 -8 2 -39 7 -69 10 -30 4 -63 9 -75 11 -12
2 -41 7 -66 10 -25 3 -54 7 -65 9 -11 1 -40 6 -65 10 -25 3 -53 9 -63 11 -11
4 -62 97 -142 260 -68 140 -129 254 -134 254 -6 0 -68 -116 -138 -257z m252
-93 c59 -121 111 -220 114 -220 3 0 47 -6 96 -14 50 -8 113 -17 140 -21 28 -3
61 -8 75 -10 46 -8 115 -17 137 -20 13 -1 26 -5 30 -9 4 -3 -72 -84 -169 -179
-98 -96 -174 -179 -173 -187 11 -56 15 -80 21 -120 3 -25 8 -54 9 -66 2 -11 8
-45 14 -75 26 -130 35 -209 26 -209 -7 0 -93 44 -367 189 l-68 35 -112 -58
c-62 -33 -159 -84 -216 -113 -57 -30 -106 -52 -109 -49 -4 3 0 39 7 78 8 40
14 82 15 93 1 11 5 34 8 50 7 31 16 82 22 125 2 14 9 50 15 80 l11 55 -177
173 c-97 95 -175 174 -173 177 5 4 52 14 102 20 57 8 114 16 177 26 36 6 82
13 103 16 21 3 46 6 55 8 9 2 24 4 32 4 10 1 56 82 125 221 60 121 112 220
115 220 3 0 55 -99 115 -220z"/>
<path d="M699 982 c-3 -67 -1 -394 3 -398 3 -2 56 23 119 56 63 33 151 79 196
102 45 23 81 43 80 44 -1 0 -60 33 -132 71 -284 153 -265 144 -266 125z m259
-193 c-4 -13 -188 -110 -197 -105 -5 3 -6 132 -2 199 1 14 17 9 102 -33 55
-28 99 -56 97 -61z"/>
</g>
</svg>
