<?xml version="1.0" encoding="UTF-8"?>
<svg width="752pt" height="752pt" version="1.1" viewBox="0 0 752 752" xmlns="http://www.w3.org/2000/svg">
 <g>
  <path d="m376.23 267.57c51.773 0 102.32 10.527 102.32 10.527l-1.9844 20.574s-48.105-7.0195-100.33-7.0195-100.96 8.3867-100.96 8.3867l-1.8242-21.469s51.008-11 102.78-11z"/>
  <path d="m425.82 419.36c0 33.293-22.305 60.43-49.773 60.43-27.516 0-49.867-27.137-49.867-60.43 0-33.34 22.352-60.477 49.867-60.477 27.469 0 49.773 27.137 49.773 60.477z"/>
  <path d="m376 300.98c-65.734 0-93.863 7.6523-93.863 7.6523l24.391 267.81s22.777 12.504 69.473 12.504c46.695 0 69.473-12.504 69.473-12.504l24.391-267.81c0 0.003906-28.129-7.6523-93.863-7.6523zm0.046875 186.96c-31.965 0-58.012-30.781-58.012-68.574 0-37.84 26.047-68.621 58.012-68.621 31.965 0 57.965 30.781 57.965 68.621 0.003907 37.789-25.996 68.574-57.965 68.574z"/>
  <path d="m366.4 259.21-11.945-55.488 14.082-2.0039 12.426 57.828z"/>
  <path d="m357.32 189.65-4.3359 12.797-78.422-26.578 4.3359-12.797z"/>
  <path d="m353.99 202.84 8.3828-10.82 4.1602 5.0352z"/>
  <path d="m425.82 419.36c0 33.293-22.305 60.43-49.773 60.43-27.516 0-49.867-27.137-49.867-60.43 0-33.34 22.352-60.477 49.867-60.477 27.469 0 49.773 27.137 49.773 60.477z"/>
 </g>
</svg>
