<?xml version="1.0" encoding="UTF-8"?>
<svg width="752pt" height="752pt" version="1.1" viewBox="0 0 752 752" xmlns="http://www.w3.org/2000/svg">
 <g>
  <path d="m516.6 287.2c0-7.8477-3.1211-15.375-8.6719-20.926-5.5508-5.5508-13.078-8.6719-20.93-8.6719h-1.2578c-1.5664-4.4492-4.5195-8.2773-8.4258-10.922 1.5039-3.5703 2.2812-7.4023 2.2852-11.277 0-7.8477-3.1172-15.379-8.668-20.93-5.5508-5.5508-13.082-8.668-20.93-8.668-5.668 0.007812-11.211 1.6602-15.957 4.7578-5.3359-4.1445-12.254-5.668-18.84-4.1445-2.6953-3.2539-6.2656-5.668-10.293-6.9609-1.5156-7.0039-5.5312-13.215-11.293-17.473-5.7656-4.2617-12.879-6.2734-20.02-5.6719-7.1406 0.60547-13.816 3.7891-18.781 8.957-2.668-1.1016-5.5273-1.668-8.4141-1.6641-5.8867 0-11.535 2.3398-15.695 6.5-4.1641 4.1641-6.5039 9.8125-6.5039 15.699v1.2578c-4.3281 1.5312-8.0781 4.3672-10.73 8.1172-2.6484 3.75-4.0703 8.2305-4.0703 12.824 0.003906 1.3672 0.13281 2.7266 0.39453 4.0703-3.5078 2.1797-6.9219 4.5547-10.25 7.1172-4.9727-3.3203-11.078-4.4961-16.93-3.2578-5.8516 1.2422-10.957 4.7891-14.156 9.8438-3.1992 5.0547-4.2227 11.184-2.8398 17.004-5.0664 4.2031-8.0039 10.438-8.0156 17.02v1.2578c-5.082 1.7812-9.3398 5.3477-11.98 10.039-2.6406 4.6914-3.4805 10.188-2.3633 15.453 1.1133 5.2656 4.1094 9.9453 8.4258 13.164-0.79688 5.2852-1.2539 10.613-1.3711 15.953-4.5742 2.6797-8.3633 6.5195-10.973 11.133-2.6133 4.6133-3.9609 9.8359-3.8984 15.137l22.199 229.39c0.37891 3.7969 3.582 6.6797 7.3984 6.6602h221.95c3.8164 0.019531 7.0195-2.8633 7.4023-6.6602l22.199-230.13c-0.019531-5.207-1.4141-10.316-4.043-14.809-2.6328-4.4922-6.4062-8.2109-10.938-10.773-0.17578-7.2227-0.98438-14.418-2.418-21.504 5.1953-2.3164 9.6055-6.0938 12.695-10.871 3.0859-4.7812 4.7227-10.352 4.7031-16.043zm-244.87 295.99-21.52-221.99c0.0625-3.9258 1.6836-7.6641 4.5-10.398 2.8203-2.7305 6.6094-4.2266 10.535-4.1641 3.9258 0.0625 7.6641 1.6797 10.395 4.5s4.2305 6.6094 4.168 10.535l14.305 221.52zm37.219 0-14.34-221.99c0.03125-3.9258 1.6211-7.6797 4.418-10.43 2.7969-2.7539 6.5742-4.2852 10.5-4.2539 3.9258 0.03125 7.6758 1.6211 10.43 4.418 2.7539 2.8008 4.2812 6.5781 4.25 10.5l7.1562 221.75zm59.656 0h-22.438l-7.1602-221.99c0-5.2891 2.8203-10.176 7.3984-12.816 4.5781-2.6445 10.223-2.6445 14.801 0 4.5781 2.6406 7.3984 7.5273 7.3984 12.816zm37.227 0h-22.426v-221.99c-0.042969-5.2891 2.7383-10.195 7.2969-12.879 4.5586-2.6797 10.199-2.7227 14.797-0.11719 4.6016 2.6094 7.4609 7.4727 7.5039 12.758zm37.227 0h-22.41l7.1562-221.99c-0.085937-5.2891 2.6562-10.219 7.1914-12.938 4.5391-2.7148 10.18-2.8047 14.801-0.23438 4.6211 2.5703 7.5195 7.4102 7.6055 12.695zm58.777-222.73-21.555 222.73h-22.383l14.305-221.99c-0.13281-5.2969 2.5664-10.258 7.0859-13.02 4.5195-2.7617 10.168-2.9023 14.82-0.37109 4.6484 2.5352 7.5938 7.3555 7.7266 12.648zm-12.578-58.738c-2.0664 0.32031-3.9023 1.5039-5.0508 3.2539s-1.5 3.9062-0.97266 5.9297c1.7812 6.7852 2.9375 13.723 3.4492 20.719-8.4062 0.12891-16.363 3.8242-21.883 10.168-5.5547-6.4805-13.664-10.207-22.199-10.207s-16.641 3.7266-22.199 10.207c-5.5508-6.4883-13.66-10.223-22.199-10.223-8.5352 0-16.648 3.7344-22.199 10.223-5.5391-6.5039-13.656-10.246-22.199-10.246s-16.656 3.7422-22.199 10.246c-5.5312-6.5156-13.648-10.27-22.199-10.27-8.5469 0-16.664 3.7539-22.199 10.27-5.4883-6.3828-13.453-10.109-21.871-10.234 0.28906-4.8203 0.88672-9.6133 1.7891-14.355 0.71094-3.5703-1.2812-7.125-4.6992-8.3828-2.8672-1.043-4.7891-3.7617-4.8164-6.8164 0-4.0859 3.3125-7.3984 7.4023-7.3984 0.375 0.023437 0.74609 0.070312 1.1172 0.14844 2.832 0.41016 5.6484-0.84766 7.2305-3.2305 1.5859-2.3867 1.6484-5.4727 0.16797-7.9219-0.71484-1.1367-1.1016-2.4531-1.1172-3.7969 0.023438-3.1367 2.0195-5.918 4.9883-6.9414 2.1562-0.75781 3.8477-2.4688 4.5703-4.6406s0.40234-4.5547-0.87109-6.457c-2.0039-3.3438-1.0703-7.6641 2.1289-9.8867 3.2031-2.2188 7.5781-1.5742 10.004 1.4727 1.2109 1.6797 3.0664 2.7773 5.1211 3.0273 2.0547 0.24609 4.1172-0.375 5.6914-1.7188 5.6875-4.875 11.848-9.168 18.395-12.809 1.7383-0.95703 3.0156-2.5742 3.5508-4.4844 0.53516-1.9102 0.27734-3.9531-0.70703-5.6758-0.68359-1.1094-1.0547-2.3828-1.0742-3.6836 0-4.0859 3.3125-7.3984 7.3984-7.3984 0.37891 0.019531 0.75 0.070313 1.1172 0.14453 2.8359 0.41406 5.6523-0.84375 7.2344-3.2305 1.582-2.3828 1.6484-5.4688 0.16797-7.918-0.71484-1.1406-1.1016-2.4531-1.1172-3.7969 0.011719-2.957 1.7852-5.6211 4.5078-6.7773 2.7188-1.1523 5.8672-0.57812 8.0039 1.4648 1.6602 1.5938 3.9648 2.3281 6.2383 1.9805 2.2773-0.34375 4.2617-1.7266 5.3711-3.7422 2.0977-3.875 5.8242-6.6094 10.148-7.4453 4.3281-0.83984 8.8047 0.30469 12.195 3.1172 3.3945 2.8125 5.3516 6.9961 5.332 11.402 0 1.9609 0.78125 3.8438 2.168 5.2305 1.3867 1.3906 3.2695 2.168 5.2305 2.168 3.1367 0.027344 5.9141 2.0234 6.9336 4.9883 0.75391 2.1719 2.4766 3.8672 4.6562 4.5938 2.1836 0.72266 4.5781 0.39453 6.4805-0.89453 1.7383-1.0898 3.8477-1.4297 5.8398-0.93359 1.9922 0.49219 3.6992 1.7773 4.7266 3.5547 1.168 2.1133 3.2969 3.5273 5.6992 3.7812s4.7773-0.67969 6.3633-2.5039c2.7578-3.2773 6.8164-5.1758 11.102-5.1836 3.8516-0.023437 7.5586 1.4688 10.324 4.1484 2.7656 2.6836 4.3711 6.3398 4.4727 10.191 0.10156 3.8516-1.3125 7.5898-3.9375 10.41-1.8906 2.0625-2.457 5.0117-1.4648 7.6289 0.99219 2.6172 3.375 4.4492 6.1562 4.7344 3.6719 0.31641 6.5273 3.3203 6.6602 7.0039l-0.11719 0.88672c-0.27344 2.5391 0.77734 5.0391 2.7891 6.6172 2.0078 1.5781 4.6875 2.0078 7.0898 1.1367 1.6055-0.61719 3.3047-0.94141 5.0234-0.96094 5.0117-0.019531 9.6914 2.5039 12.426 6.707 2.7344 4.1992 3.1484 9.5 1.1016 14.074-2.0469 4.5781-6.2773 7.8008-11.234 8.5586z"/>
  <path d="m193.9 202.33c-1.8906 3.3125-2.8867 7.0586-2.8945 10.875 0 5.8867 2.3398 11.535 6.5039 15.699 4.1641 4.1602 9.8086 6.5 15.695 6.5 3.3672 0.007812 6.6875-0.76953 9.7031-2.2695 3.9961 1.4922 8.2305 2.2617 12.496 2.2695 9.8086-0.011719 19.215-3.9141 26.148-10.848 6.9375-6.9375 10.84-16.34 10.852-26.148-0.011719-4.2695-0.77734-8.5-2.2734-12.5 1.5-3.0117 2.2812-6.3359 2.2734-9.6992 0.015625-6.0312-2.4297-11.809-6.7695-15.996-4.3398-4.1836-10.199-6.4219-16.223-6.1875-6.0273 0.23047-11.695 2.9102-15.703 7.418-5.2695 0.24609-10.426 1.6406-15.102 4.0859-4.8672-3.6914-11.043-5.2188-17.07-4.2109-6.0273 1.0039-11.371 4.4492-14.777 9.5195-3.4062 5.0742-4.5703 11.328-3.2188 17.285 1.3516 5.9609 5.0977 11.098 10.359 14.207zm11.906-26.121c2.3438 0.003906 4.543 1.1328 5.918 3.0312 1.1758 1.5859 2.9336 2.6406 4.8867 2.9258 1.9531 0.30078 3.9453-0.21094 5.5117-1.4141 3.8555-2.9375 8.5703-4.5195 13.414-4.5078 0.4375 0.058594 0.875 0.11719 1.3164 0.14062 2.8398 0.17188 5.5312-1.2812 6.9414-3.75 1.2773-2.3555 3.7344-3.8203 6.4102-3.8281 1.9609 0 3.8438 0.78125 5.2305 2.168 1.3906 1.3867 2.168 3.2695 2.168 5.2344-0.015625 1.6445-0.58594 3.2344-1.6211 4.5117-1.7617 2.25-2.0703 5.3164-0.78906 7.875 1.5586 3.0352 2.3867 6.3984 2.4102 9.8125 0 5.8867-2.3398 11.531-6.5 15.695-4.1641 4.1641-9.8125 6.5039-15.699 6.5039-3.4141-0.027344-6.7734-0.85156-9.8125-2.4141-1.0234-0.51172-2.1523-0.78125-3.3008-0.78516-1.6562 0.003906-3.2656 0.55859-4.5703 1.5781-1.2812 1.0312-2.8711 1.6016-4.5156 1.6211-4.0859 0-7.3984-3.3164-7.3984-7.4023 0.003906-2.6758 1.4727-5.1328 3.8242-6.4062 2.4844-1.3984 3.9414-4.0977 3.7539-6.9414-0.03125-0.48828-0.089844-0.97266-0.17969-1.4492 0-1.9648-0.77734-3.8477-2.168-5.2344-1.3867-1.3867-3.2695-2.168-5.2305-2.168-4.0859 0-7.3984-3.3125-7.3984-7.3984s3.3125-7.3984 7.3984-7.3984z"/>
  <path d="m560.3 192.04c-1.2227-5.5117-3.9961-10.562-7.9883-14.555-3.9961-3.9922-9.043-6.7656-14.559-7.9922-2.1211-6.6328-7.2344-11.887-13.809-14.188-6.5781-2.3008-13.852-1.3828-19.648 2.4805-5.7969 3.8633-9.4414 10.227-9.8477 17.18-0.40625 6.957 2.4766 13.695 7.7891 18.207-0.30078 1.7305-0.44922 3.4805-0.44531 5.2344 0 7.8477 3.1172 15.379 8.668 20.93 5.5508 5.5508 13.082 8.668 20.93 8.668 1.7578 0 3.5117-0.15234 5.2383-0.46094 4.5117 5.3086 11.254 8.1953 18.207 7.7891 6.957-0.40625 13.316-4.0508 17.184-9.8477 3.8633-5.7969 4.7812-13.07 2.4805-19.648-2.3008-6.5742-7.5547-11.688-14.191-13.809zm-6.7109 28.566c-2.9844 0-5.6797-1.7969-6.8281-4.5508-0.75391-1.8164-2.1953-3.2539-4.0117-4.0039-0.89453-0.36719-1.8516-0.55469-2.8203-0.55469-0.97656-0.003906-1.9453 0.19141-2.8477 0.57031-3.6289 1.5078-7.7109 1.5117-11.344 0.011719-3.6328-1.5039-6.5195-4.3867-8.0195-8.0195-1.5039-3.6328-1.4961-7.7148 0.011719-11.344 0.75781-1.8125 0.76172-3.8516 0.011719-5.668-0.74609-1.8125-2.1875-3.2578-4-4.0117-2.5156-1.0508-4.2539-3.4023-4.5156-6.1172s0.99219-5.3555 3.2617-6.8711c2.2695-1.5117 5.1914-1.6523 7.5938-0.36328 2.4062 1.2852 3.9102 3.793 3.9102 6.5234 0 1.9609 0.77734 3.8438 2.168 5.2305 1.3867 1.3867 3.2695 2.168 5.2305 2.168 3.9258 0 7.6914 1.5586 10.465 4.3359 2.7773 2.7734 4.3359 6.5391 4.3359 10.465 0 1.9609 0.77734 3.8438 2.168 5.2305 1.3867 1.3867 3.2695 2.168 5.2305 2.168 4.0859 0 7.3984 3.3125 7.3984 7.3984 0 4.0859-3.3125 7.4023-7.3984 7.4023z"/>
  <path d="m383.4 257.61c-7.8516 0-15.379 3.1211-20.93 8.6719-5.5508 5.5508-8.6719 13.078-8.6719 20.926h14.801c0-5.2852 2.8203-10.172 7.3984-12.816 4.582-2.6406 10.223-2.6406 14.801 0 4.5781 2.6445 7.3984 7.5312 7.3984 12.816h14.801c0-7.8477-3.1172-15.375-8.668-20.926-5.5508-5.5508-13.082-8.6719-20.93-8.6719z"/>
  <path d="m309.4 279.8c-5.8867 0-11.531 2.3398-15.695 6.5039-4.1641 4.1602-6.5039 9.8086-6.5039 15.695h14.801c0-4.0859 3.3125-7.3984 7.3984-7.3984 4.0898 0 7.4023 3.3125 7.4023 7.3984h14.801-0.003907c0-5.8867-2.3359-11.535-6.5-15.695-4.1641-4.1641-9.8086-6.5039-15.699-6.5039z"/>
  <path d="m450 279.8c-5.8906 0-11.535 2.3398-15.699 6.5039-4.1641 4.1602-6.5 9.8086-6.5 15.695h14.801-0.003906c0-4.0859 3.3125-7.3984 7.4023-7.3984 4.0859 0 7.3984 3.3125 7.3984 7.3984h14.801c0-5.8867-2.3398-11.535-6.5039-15.695-4.1641-4.1641-9.8086-6.5039-15.695-6.5039z"/>
 </g>
</svg>
