<?xml version="1.0" encoding="UTF-8"?>
<svg width="752pt" height="752pt" version="1.1" viewBox="0 0 752 752" xmlns="http://www.w3.org/2000/svg">
 <g fill="#ff001b">
  <path d="m222.66 542.98h47.879v27.184h-47.879z"/>
  <path d="m481.47 542.98h47.879v27.184h-47.879z"/>
  <path d="m205.51 528.78h340.79s0.33203-0.046875 0.47266-0.046875c24.672-0.14062 44.707-20.316 44.707-44.941v-108.07c0-24.816-20.176-44.988-44.988-44.988h-9.707c-24.77 0-44.988 20.176-44.988 44.988v56.641c0 3.8828-3.1719 7.1055-7.1055 7.1055l-217.38-0.003906c-3.9297 0-7.1055-3.2188-7.1055-7.1055v-56.641c0-24.816-20.223-44.988-44.988-44.988h-9.707c-24.816 0-44.988 20.176-44.988 44.988v108.07c0 24.77 20.176 44.988 44.988 44.988z"/>
  <path d="m477.59 425.25v-49.535c0-31.02 24.012-56.449 54.367-58.961v-76.625c0-27.09-22.07-49.156-49.156-49.156l-213.59-0.003906c-27.09 0-49.156 22.07-49.156 49.156v76.625c30.355 2.5117 54.367 27.941 54.367 58.961v49.535h203.17z"/>
 </g>
</svg>
